<?xml version="1.0" standalone="no"?>
<!DOCTYPE svg PUBLIC "-//W3C//DTD SVG 20010904//EN"
 "http://www.w3.org/TR/2001/REC-SVG-20010904/DTD/svg10.dtd">
<svg version="1.0" xmlns="http://www.w3.org/2000/svg"
 width="664.000000pt" height="664.000000pt" viewBox="0 0 664.000000 664.000000"
 preserveAspectRatio="xMidYMid meet">
<metadata>
Created by potrace 1.14, written by Peter Selinger 2001-2017
</metadata>
<g transform="translate(0.000000,664.000000) scale(0.100000,-0.100000)"
fill="#000000" stroke="none">
<path d="M5514 6446 c-146 -53 -236 -138 -272 -258 -4 -13 -8 -623 -9 -1356
l-3 -1333 -40 -117 c-66 -195 -78 -248 -78 -345 0 -64 5 -100 18 -129 36 -82
170 -214 340 -339 103 -74 328 -197 430 -234 120 -43 160 -55 235 -70 17 -4
69 -8 117 -9 115 -3 171 17 232 85 93 104 119 274 79 519 -3 19 -6 753 -7
1630 -2 1814 7 1639 -92 1729 -74 68 -286 166 -403 188 -14 2 -28 6 -33 9 -4
3 -17 7 -28 10 -53 11 -69 15 -120 25 -30 6 -111 12 -180 14 -108 2 -133 0
-186 -19z"/>
<path d="M2985 5858 c-83 -11 -123 -25 -178 -65 -62 -45 -90 -104 -102 -213
-3 -30 -8 -66 -10 -80 -9 -58 -23 -344 -24 -497 -1 -100 -2 -102 -66 -95 l-30
4 -3 131 c-7 327 -21 448 -58 485 -8 7 -17 18 -21 25 -31 47 -258 176 -338
191 -5 1 -30 9 -55 18 -161 58 -326 90 -475 91 -88 1 -124 -6 -182 -34 -66
-32 -109 -78 -145 -156 -30 -65 -31 -74 -32 -193 0 -115 5 -175 19 -240 3 -14
8 -47 11 -75 4 -27 8 -53 10 -57 5 -8 15 -97 18 -157 1 -24 -3 -45 -9 -47 -5
-2 -140 -6 -300 -9 -607 -11 -636 -14 -743 -66 -254 -124 -276 -443 -53 -799
14 -23 80 -112 125 -170 43 -54 191 -191 213 -196 12 -4 23 -9 23 -13 0 -17
134 -58 180 -55 68 5 103 14 191 52 121 51 122 52 251 56 75 3 110 1 115 -7
11 -18 9 -138 -2 -145 -5 -3 -161 -7 -345 -9 -367 -2 -387 -4 -451 -32 -49
-22 -158 -110 -158 -128 -1 -7 -7 -16 -14 -20 -21 -14 -66 -116 -76 -173 -21
-124 9 -213 139 -415 35 -55 164 -230 172 -233 4 -2 8 -10 8 -18 0 -8 4 -14 8
-14 4 0 24 -21 44 -48 59 -76 164 -175 219 -204 84 -45 153 -38 304 32 46 21
99 43 119 48 41 12 38 20 38 -109 0 -63 -5 -83 -26 -120 -85 -142 -110 -239
-87 -325 28 -105 223 -283 544 -497 153 -103 235 -139 317 -143 150 -6 299 74
387 210 57 89 55 59 66 876 l2 125 75 0 75 0 -1 -30 c-1 -16 -5 -102 -8 -190
-7 -187 -9 -205 -31 -265 -43 -117 -63 -204 -63 -276 0 -67 13 -141 28 -154 3
-3 12 -18 20 -33 15 -29 55 -73 100 -108 47 -37 175 -118 187 -119 6 0 13 -3
15 -7 2 -5 19 -16 38 -27 58 -31 215 -110 220 -111 3 -1 23 -9 45 -19 67 -29
158 -56 205 -62 25 -3 54 -6 64 -8 31 -4 101 11 150 33 82 38 172 169 190 277
2 16 5 29 6 29 0 0 3 59 5 130 3 72 7 182 10 245 7 186 16 457 19 570 1 58 6
112 10 119 6 9 42 11 155 8 80 -3 157 -8 171 -12 14 -3 34 -8 45 -9 11 -2 36
-7 55 -10 19 -4 62 -12 95 -18 81 -14 249 -18 310 -7 93 17 176 70 220 139 41
65 55 131 50 243 -6 133 -6 131 -60 357 -20 82 -108 303 -133 333 -8 9 -12 17
-8 17 22 0 -106 145 -147 166 -55 29 -184 43 -449 49 -80 1 -151 6 -157 9 -6
4 -11 4 -11 -1 0 -7 -53 -9 -70 -3 -3 1 -17 1 -32 0 -27 -1 -28 0 -28 48 l0
49 198 2 c336 4 602 14 665 27 12 2 37 7 55 10 17 3 32 10 32 15 0 5 6 9 13 9
44 0 121 135 135 236 12 88 5 250 -13 314 -2 8 -7 29 -10 46 -15 94 -77 273
-141 412 -19 41 -34 78 -34 83 0 5 -4 9 -10 9 -5 0 -10 9 -10 20 0 11 -4 20
-10 20 -5 0 -10 5 -10 11 0 17 -60 67 -100 85 -37 17 -141 23 -201 11 -20 -3
-93 -24 -162 -46 -93 -30 -143 -40 -193 -41 -38 0 -96 -1 -129 -2 l-60 -2 -2
59 c-2 43 6 87 28 159 17 54 33 110 35 124 3 15 9 31 14 37 4 5 7 53 7 105 -3
163 -38 200 -285 309 -264 116 -532 172 -717 149z m-313 -2182 c2 -12 1 -37
-2 -57 -5 -35 -5 -35 -57 -36 l-52 -2 4 57 c1 31 3 58 4 59 1 0 23 1 50 0 42
0 50 -3 53 -21z"/>
<path d="M5518 2155 c-2 -2 -16 -5 -33 -7 -110 -15 -211 -125 -240 -263 -3
-14 -8 -37 -11 -52 -3 -16 -7 -190 -8 -388 l-2 -360 -28 -65 c-63 -149 -78
-239 -51 -321 19 -57 108 -152 186 -198 23 -14 134 -76 174 -98 82 -44 432
-184 498 -199 4 -1 8 -2 10 -4 5 -4 112 -29 155 -36 20 -3 39 -6 42 -7 19 -4
102 18 144 39 97 49 156 136 176 261 18 110 20 140 25 308 4 153 11 313 20
420 14 171 17 231 19 325 4 195 -18 245 -147 330 -42 29 -83 53 -90 54 -6 1
-23 8 -37 16 -26 15 -75 36 -205 89 -104 43 -114 47 -150 59 -16 6 -39 13 -50
18 -11 4 -27 9 -35 11 -24 6 -32 8 -95 27 -33 10 -67 19 -75 20 -8 1 -35 5
-60 9 -58 10 -128 16 -132 12z"/>
</g>
</svg>
