<?xml version="1.0" encoding="UTF-8"?>
<svg width="83px" height="80px" viewBox="0 0 83 80" version="1.1" xmlns="http://www.w3.org/2000/svg" xmlns:xlink="http://www.w3.org/1999/xlink">
    <title>Untitled</title>
    <defs>
        <path d="M38.721,66.507 C41.2723333,67.8543333 43.0926667,68.442 44.182,68.27 C45.386,68.098 46.16,67.1233333 46.504,65.346 C46.7333333,60.0713333 46.9053333,55.1693333 47.02,50.64 L47.02,50.64 L51.32,50.64 C51.664,50.64 52.5813333,50.7833333 54.072,51.07 C55.5626667,51.3566667 56.7093333,51.5 57.512,51.5 C59.748,51.5 60.866,50.554 60.866,48.662 C60.866,47.114 60.522,45.2793333 59.834,43.158 C59.0886667,40.8073333 58.2573333,39.2593333 57.34,38.514 C56.8813333,38.17 53.47,37.998 47.106,37.998 C47.106,36.1633333 47.1346667,34.7586667 47.192,33.784 C55.2186667,33.784 59.4613333,33.612 59.92,33.268 C60.608,32.752 60.952,31.7773333 60.952,30.344 C60.952,27.7066667 60.0633333,24.6393333 58.286,21.142 C57.9993333,20.5686667 57.4833333,20.282 56.738,20.282 C56.1646667,20.282 55.3046667,20.4826667 54.158,20.884 C53.0113333,21.2853333 52.2946667,21.486 52.008,21.486 C50.804,21.486 49.2273333,21.5146667 47.278,21.572 L47.278,21.572 L47.278,18.562 C47.278,18.2753333 47.4643333,17.573 47.837,16.455 C48.2096667,15.337 48.396,14.52 48.396,14.004 C48.396,13.2013333 48.1093333,12.6566667 47.536,12.37 C43.9813333,10.5926667 40.914,9.704 38.334,9.704 C36.958,9.704 36.055,10.005 35.625,10.607 C35.195,11.209 34.9226667,14.8926667 34.808,21.658 L34.808,21.658 L30.68,21.658 C30.68,16.5553333 30.5366667,13.7746667 30.25,13.316 C29.5046667,12.3986667 27.9566667,11.5673333 25.606,10.822 C23.4846667,10.134 21.65,9.79 20.102,9.79 C18.21,9.79 17.264,10.908 17.264,13.144 C17.264,14.004 17.393,15.165 17.651,16.627 C17.909,18.089 18.038,18.992 18.038,19.336 L18.038,19.336 L18.038,21.83 C10.1833333,21.9446667 5.94066667,22.0593333 5.31,22.174 C3.30333333,22.5753333 2.3,23.6933333 2.3,25.528 C2.3,27.3626667 3.14566667,29.398 4.837,31.634 C6.52833333,33.87 8.00466667,35.0453333 9.266,35.16 C9.83933333,35.2173333 10.5273333,35.0453333 11.33,34.644 C12.1326667,34.2426667 12.8206667,33.999 13.394,33.913 C13.9174783,33.8344783 15.2534858,33.7918034 17.4020227,33.7849754 L18.038,33.784 L18.038,38.772 C14.1966667,38.8293333 10.7853333,38.858 7.804,38.858 C7.00133333,39.03 6.28466667,39.503 5.654,40.277 C5.02333333,41.051 4.73666667,41.9253333 4.794,42.9 C4.85133333,43.76 5.869,45.523 7.847,48.189 C9.825,50.855 11.1866667,52.2166667 11.932,52.274 C12.3333333,52.3313333 13.093,52.0733333 14.211,51.5 C15.329,50.9266667 16.6046667,50.64 18.038,50.64 L18.038,50.64 L18.038,54.596 C17.9806667,55.112 17.694,55.7713333 17.178,56.574 C16.662,57.3766667 16.4326667,58.0933333 16.49,58.724 C16.5473333,59.4693333 17.9233333,60.831 20.618,62.809 C23.3126667,64.787 25.0326667,65.8046667 25.778,65.862 C26.7526667,65.9193333 27.6413333,65.6326667 28.444,65.002 C29.2466667,64.3713333 29.734,63.6546667 29.906,62.852 C29.9633333,58.6666667 30.0206667,54.596 30.078,50.64 L30.078,50.64 L34.98,50.64 C34.8653333,54.3093333 34.7793333,56.5453333 34.722,57.348 C34.722,57.6346667 34.5356667,58.2796667 34.163,59.283 C33.7903333,60.2863333 33.604,61.1033333 33.604,61.734 C33.604,62.3646667 33.776,62.938 34.12,63.454 C34.636,64.142 36.1696667,65.1596667 38.721,66.507 Z M30.422,38.342 C30.5366667,36.278 30.594,34.7586667 30.594,33.784 L30.594,33.784 L34.894,33.784 L34.894,38.17 C33.9766667,38.17 32.486,38.2273333 30.422,38.342 Z M78.324,51.844 C78.6106667,51.844 78.8973333,51.8153333 79.184,51.758 C80.1586667,51.5286667 80.7033333,50.3533333 80.818,48.232 C80.818,47.8306667 80.7606667,47.3003333 80.646,46.641 C80.5313333,45.9816667 80.474,45.48 80.474,45.136 L80.474,45.136 L80.4731224,9.4424898 C80.465517,6.90987755 80.4084762,5.56371429 80.302,5.404 C79.786,4.60133333 78.496,3.856 76.432,3.168 C74.368,2.48 72.5333333,2.136 70.928,2.136 C70.2973333,2.136 69.81,2.19333333 69.466,2.308 C67.746,2.88133333 66.886,3.91333333 66.886,5.404 L66.886,5.404 L66.886,37.912 C66.886,37.9693333 66.542,39.0013333 65.854,41.008 C65.166,43.0146667 65.166,44.3906667 65.854,45.136 C67.4593333,46.9706667 69.5233333,48.5473333 72.046,49.866 C74.5686667,51.1846667 76.6613333,51.844 78.324,51.844 Z M72.046,76.268 C75.314,77.5866667 77.292,78.16 77.98,77.988 C79.184,77.7586667 79.9006667,77.0133333 80.13,75.752 C80.3593333,74.4906667 80.474,72.7133333 80.474,70.42 C80.474,69.732 80.5886667,67.8973333 80.818,64.916 C80.99,62.6226667 80.99,61.218 80.818,60.702 C80.5886667,60.0713333 79.0406667,59.1683333 76.174,57.993 C73.3073333,56.8176667 71.0713333,56.1726667 69.466,56.058 C67.9753333,56.0006667 67.1153333,57.004 66.886,59.068 C66.7713333,62.6226667 66.7713333,65.0306667 66.886,66.292 C66.8286667,67.7826667 66.628,68.8433333 66.284,69.474 C65.596,70.9073333 65.4526667,71.9393333 65.854,72.57 C66.542,73.602 68.606,74.8346667 72.046,76.268 Z" id="path-1"></path>
    </defs>
    <g id="Page-1" stroke="none" stroke-width="1" fill="none" fill-rule="evenodd">
        <g id="#!" fill-rule="nonzero" fill="#FFFFFF">
            <use xlink:href="#path-1"></use>
            <use stroke="#000000" stroke-width="3" xlink:href="#path-1"></use>
        </g>
    </g>
</svg>